<mxfile host="app.diagrams.net" modified="2021-03-22T13:55:26.649Z" agent="5.0 (Macintosh; Intel Mac OS X 10_13_6) AppleWebKit/537.36 (KHTML, like Gecko) Chrome/89.0.4389.90 Safari/537.36" etag="L5HIxvrdRjBk7DJ32kii" version="14.4.5" type="github">
  <diagram id="jZAarwOWkkP9UEyg10Ec" name="Page-1">
    <mxGraphModel dx="1554" dy="812" grid="0" gridSize="10" guides="1" tooltips="1" connect="1" arrows="1" fold="1" page="1" pageScale="1" pageWidth="827" pageHeight="1169" math="0" shadow="0">
      <root>
        <mxCell id="0" />
        <mxCell id="1" parent="0" />
        <mxCell id="B8lT1BYpQYsdv23vgfG--2" value="" style="rounded=0;whiteSpace=wrap;html=1;fillColor=#d5e8d4;strokeColor=#82b366;" vertex="1" parent="1">
          <mxGeometry x="100" y="280" width="132" height="120" as="geometry" />
        </mxCell>
        <mxCell id="B8lT1BYpQYsdv23vgfG--3" value="" style="rounded=0;whiteSpace=wrap;html=1;fillColor=#60a917;strokeColor=#2D7600;fontColor=#ffffff;" vertex="1" parent="1">
          <mxGeometry x="360" y="280" width="114" height="120" as="geometry" />
        </mxCell>
        <mxCell id="B8lT1BYpQYsdv23vgfG--4" value="" style="rounded=0;whiteSpace=wrap;html=1;fillColor=#d5e8d4;strokeColor=#82b366;" vertex="1" parent="1">
          <mxGeometry x="614" y="280" width="120" height="120" as="geometry" />
        </mxCell>
        <mxCell id="B8lT1BYpQYsdv23vgfG--5" value="" style="rounded=0;whiteSpace=wrap;html=1;fillColor=#f8cecc;strokeColor=#b85450;" vertex="1" parent="1">
          <mxGeometry x="100" y="450" width="180" height="120" as="geometry" />
        </mxCell>
        <mxCell id="B8lT1BYpQYsdv23vgfG--6" value="" style="rounded=0;whiteSpace=wrap;html=1;fillColor=#f8cecc;strokeColor=#b85450;" vertex="1" parent="1">
          <mxGeometry x="327" y="450" width="180" height="120" as="geometry" />
        </mxCell>
        <mxCell id="B8lT1BYpQYsdv23vgfG--7" value="" style="rounded=0;whiteSpace=wrap;html=1;fillColor=#f8cecc;strokeColor=#b85450;" vertex="1" parent="1">
          <mxGeometry x="554" y="450" width="180" height="120" as="geometry" />
        </mxCell>
        <mxCell id="B8lT1BYpQYsdv23vgfG--14" style="edgeStyle=orthogonalEdgeStyle;rounded=0;orthogonalLoop=1;jettySize=auto;html=1;endArrow=none;endFill=0;strokeWidth=3;" edge="1" parent="1">
          <mxGeometry relative="1" as="geometry">
            <mxPoint x="414" y="110" as="targetPoint" />
            <mxPoint x="414" y="290" as="sourcePoint" />
          </mxGeometry>
        </mxCell>
        <mxCell id="B8lT1BYpQYsdv23vgfG--8" value="主 Master" style="text;html=1;fillColor=none;align=center;verticalAlign=middle;whiteSpace=wrap;rounded=0;" vertex="1" parent="1">
          <mxGeometry x="386" y="290" width="56" height="20" as="geometry" />
        </mxCell>
        <mxCell id="B8lT1BYpQYsdv23vgfG--9" value="从 Master" style="text;html=1;fillColor=none;align=center;verticalAlign=middle;whiteSpace=wrap;rounded=0;dashed=1;" vertex="1" parent="1">
          <mxGeometry x="624" y="290" width="56" height="20" as="geometry" />
        </mxCell>
        <mxCell id="B8lT1BYpQYsdv23vgfG--10" value="从 Master" style="text;html=1;fillColor=none;align=center;verticalAlign=middle;whiteSpace=wrap;rounded=0;dashed=1;" vertex="1" parent="1">
          <mxGeometry x="135" y="292" width="56" height="20" as="geometry" />
        </mxCell>
        <mxCell id="B8lT1BYpQYsdv23vgfG--15" value="Node" style="text;html=1;strokeColor=none;fillColor=none;align=center;verticalAlign=middle;whiteSpace=wrap;rounded=0;dashed=1;" vertex="1" parent="1">
          <mxGeometry x="170" y="470" width="40" height="20" as="geometry" />
        </mxCell>
        <mxCell id="B8lT1BYpQYsdv23vgfG--16" value="Node" style="text;html=1;strokeColor=none;fillColor=none;align=center;verticalAlign=middle;whiteSpace=wrap;rounded=0;dashed=1;" vertex="1" parent="1">
          <mxGeometry x="394" y="470" width="40" height="20" as="geometry" />
        </mxCell>
        <mxCell id="B8lT1BYpQYsdv23vgfG--17" value="Node" style="text;html=1;strokeColor=none;fillColor=none;align=center;verticalAlign=middle;whiteSpace=wrap;rounded=0;dashed=1;" vertex="1" parent="1">
          <mxGeometry x="624" y="470" width="40" height="20" as="geometry" />
        </mxCell>
        <mxCell id="B8lT1BYpQYsdv23vgfG--18" value="" style="rounded=1;whiteSpace=wrap;html=1;strokeColor=#B09500;fillColor=#e3c800;fontColor=#ffffff;" vertex="1" parent="1">
          <mxGeometry x="120" y="510" width="60" height="50" as="geometry" />
        </mxCell>
        <mxCell id="B8lT1BYpQYsdv23vgfG--19" value="" style="rounded=1;whiteSpace=wrap;html=1;strokeColor=#B09500;fillColor=#e3c800;fontColor=#ffffff;" vertex="1" parent="1">
          <mxGeometry x="198" y="510" width="60" height="50" as="geometry" />
        </mxCell>
        <mxCell id="B8lT1BYpQYsdv23vgfG--20" value="" style="rounded=1;whiteSpace=wrap;html=1;strokeColor=#B09500;fillColor=#e3c800;fontColor=#ffffff;" vertex="1" parent="1">
          <mxGeometry x="345" y="510" width="60" height="50" as="geometry" />
        </mxCell>
        <mxCell id="B8lT1BYpQYsdv23vgfG--21" value="" style="rounded=1;whiteSpace=wrap;html=1;strokeColor=#B09500;fillColor=#e3c800;fontColor=#ffffff;" vertex="1" parent="1">
          <mxGeometry x="423" y="510" width="60" height="50" as="geometry" />
        </mxCell>
        <mxCell id="B8lT1BYpQYsdv23vgfG--22" value="" style="rounded=1;whiteSpace=wrap;html=1;strokeColor=#B09500;fillColor=#e3c800;fontColor=#ffffff;" vertex="1" parent="1">
          <mxGeometry x="575" y="510" width="60" height="50" as="geometry" />
        </mxCell>
        <mxCell id="B8lT1BYpQYsdv23vgfG--23" value="" style="rounded=1;whiteSpace=wrap;html=1;strokeColor=#B09500;fillColor=#e3c800;fontColor=#ffffff;" vertex="1" parent="1">
          <mxGeometry x="653" y="510" width="60" height="50" as="geometry" />
        </mxCell>
        <mxCell id="B8lT1BYpQYsdv23vgfG--24" value="" style="ellipse;shape=cloud;whiteSpace=wrap;html=1;dashed=1;strokeColor=#000000;" vertex="1" parent="1">
          <mxGeometry x="354" y="40" width="120" height="80" as="geometry" />
        </mxCell>
        <mxCell id="B8lT1BYpQYsdv23vgfG--26" value="" style="rounded=0;whiteSpace=wrap;html=1;strokeColor=#000000;" vertex="1" parent="1">
          <mxGeometry x="232" y="525" width="20" height="20" as="geometry" />
        </mxCell>
        <mxCell id="B8lT1BYpQYsdv23vgfG--27" value="" style="rounded=0;whiteSpace=wrap;html=1;strokeColor=#000000;" vertex="1" parent="1">
          <mxGeometry x="204" y="525" width="20" height="20" as="geometry" />
        </mxCell>
        <mxCell id="B8lT1BYpQYsdv23vgfG--30" value="" style="rounded=0;whiteSpace=wrap;html=1;strokeColor=#000000;" vertex="1" parent="1">
          <mxGeometry x="379" y="525" width="20" height="20" as="geometry" />
        </mxCell>
        <mxCell id="B8lT1BYpQYsdv23vgfG--31" value="" style="rounded=0;whiteSpace=wrap;html=1;strokeColor=#000000;" vertex="1" parent="1">
          <mxGeometry x="351" y="525" width="20" height="20" as="geometry" />
        </mxCell>
        <mxCell id="B8lT1BYpQYsdv23vgfG--32" value="" style="rounded=0;whiteSpace=wrap;html=1;strokeColor=#000000;" vertex="1" parent="1">
          <mxGeometry x="609" y="525" width="20" height="20" as="geometry" />
        </mxCell>
        <mxCell id="B8lT1BYpQYsdv23vgfG--33" value="" style="rounded=0;whiteSpace=wrap;html=1;strokeColor=#000000;" vertex="1" parent="1">
          <mxGeometry x="581" y="525" width="20" height="20" as="geometry" />
        </mxCell>
        <mxCell id="B8lT1BYpQYsdv23vgfG--37" value="" style="rounded=0;whiteSpace=wrap;html=1;strokeColor=#000000;" vertex="1" parent="1">
          <mxGeometry x="457" y="525" width="20" height="20" as="geometry" />
        </mxCell>
        <mxCell id="B8lT1BYpQYsdv23vgfG--38" value="" style="rounded=0;whiteSpace=wrap;html=1;strokeColor=#000000;" vertex="1" parent="1">
          <mxGeometry x="429" y="525" width="20" height="20" as="geometry" />
        </mxCell>
        <mxCell id="B8lT1BYpQYsdv23vgfG--39" value="" style="rounded=0;whiteSpace=wrap;html=1;strokeColor=#000000;" vertex="1" parent="1">
          <mxGeometry x="154" y="525" width="20" height="20" as="geometry" />
        </mxCell>
        <mxCell id="B8lT1BYpQYsdv23vgfG--40" value="" style="rounded=0;whiteSpace=wrap;html=1;strokeColor=#000000;" vertex="1" parent="1">
          <mxGeometry x="126" y="525" width="20" height="20" as="geometry" />
        </mxCell>
        <mxCell id="B8lT1BYpQYsdv23vgfG--41" value="" style="rounded=0;whiteSpace=wrap;html=1;strokeColor=#000000;" vertex="1" parent="1">
          <mxGeometry x="687" y="525" width="20" height="20" as="geometry" />
        </mxCell>
        <mxCell id="B8lT1BYpQYsdv23vgfG--42" value="" style="rounded=0;whiteSpace=wrap;html=1;strokeColor=#000000;" vertex="1" parent="1">
          <mxGeometry x="659" y="525" width="20" height="20" as="geometry" />
        </mxCell>
        <mxCell id="B8lT1BYpQYsdv23vgfG--44" value="上报" style="endArrow=classic;html=1;strokeWidth=1;exitX=0.5;exitY=0;exitDx=0;exitDy=0;entryX=0.5;entryY=1;entryDx=0;entryDy=0;" edge="1" parent="1" source="B8lT1BYpQYsdv23vgfG--5" target="B8lT1BYpQYsdv23vgfG--3">
          <mxGeometry relative="1" as="geometry">
            <mxPoint x="360" y="490" as="sourcePoint" />
            <mxPoint x="460" y="490" as="targetPoint" />
          </mxGeometry>
        </mxCell>
        <mxCell id="B8lT1BYpQYsdv23vgfG--45" value="上 报" style="edgeLabel;resizable=0;html=1;align=center;verticalAlign=middle;" connectable="0" vertex="1" parent="B8lT1BYpQYsdv23vgfG--44">
          <mxGeometry relative="1" as="geometry" />
        </mxCell>
        <mxCell id="B8lT1BYpQYsdv23vgfG--46" value="" style="endArrow=classic;html=1;strokeWidth=1;exitX=0.5;exitY=0;exitDx=0;exitDy=0;entryX=0.5;entryY=1;entryDx=0;entryDy=0;" edge="1" parent="1" source="B8lT1BYpQYsdv23vgfG--6" target="B8lT1BYpQYsdv23vgfG--3">
          <mxGeometry relative="1" as="geometry">
            <mxPoint x="330" y="490" as="sourcePoint" />
            <mxPoint x="490" y="490" as="targetPoint" />
          </mxGeometry>
        </mxCell>
        <mxCell id="B8lT1BYpQYsdv23vgfG--47" value="上报" style="edgeLabel;resizable=0;html=1;align=center;verticalAlign=middle;" connectable="0" vertex="1" parent="B8lT1BYpQYsdv23vgfG--46">
          <mxGeometry relative="1" as="geometry" />
        </mxCell>
        <mxCell id="B8lT1BYpQYsdv23vgfG--50" value="上报" style="endArrow=classic;html=1;strokeWidth=1;exitX=0.5;exitY=0;exitDx=0;exitDy=0;entryX=0.5;entryY=1;entryDx=0;entryDy=0;" edge="1" parent="1" source="B8lT1BYpQYsdv23vgfG--7" target="B8lT1BYpQYsdv23vgfG--3">
          <mxGeometry relative="1" as="geometry">
            <mxPoint x="330" y="490" as="sourcePoint" />
            <mxPoint x="490" y="490" as="targetPoint" />
          </mxGeometry>
        </mxCell>
        <mxCell id="B8lT1BYpQYsdv23vgfG--56" value="Keepalived" style="endArrow=classic;startArrow=classic;html=1;strokeWidth=1;exitX=1;exitY=0.5;exitDx=0;exitDy=0;entryX=0;entryY=0.5;entryDx=0;entryDy=0;" edge="1" parent="1" source="B8lT1BYpQYsdv23vgfG--2" target="B8lT1BYpQYsdv23vgfG--3">
          <mxGeometry width="50" height="50" relative="1" as="geometry">
            <mxPoint x="450" y="432" as="sourcePoint" />
            <mxPoint x="500" y="382" as="targetPoint" />
          </mxGeometry>
        </mxCell>
        <mxCell id="B8lT1BYpQYsdv23vgfG--60" value="" style="endArrow=classic;startArrow=classic;html=1;strokeWidth=1;entryX=0;entryY=0.5;entryDx=0;entryDy=0;exitX=1;exitY=0.5;exitDx=0;exitDy=0;" edge="1" parent="1" source="B8lT1BYpQYsdv23vgfG--3" target="B8lT1BYpQYsdv23vgfG--4">
          <mxGeometry width="50" height="50" relative="1" as="geometry">
            <mxPoint x="450" y="432" as="sourcePoint" />
            <mxPoint x="500" y="382" as="targetPoint" />
          </mxGeometry>
        </mxCell>
        <mxCell id="B8lT1BYpQYsdv23vgfG--61" value="Keepalived" style="edgeLabel;html=1;align=center;verticalAlign=middle;resizable=0;points=[];" vertex="1" connectable="0" parent="B8lT1BYpQYsdv23vgfG--60">
          <mxGeometry x="0.0051" relative="1" as="geometry">
            <mxPoint as="offset" />
          </mxGeometry>
        </mxCell>
      </root>
    </mxGraphModel>
  </diagram>
</mxfile>
